HIERARCHY
ROOT Joint1
{
	OFFSET 0.000000 0.000000 0.000000
	CHANNELS 6 Xposition Yposition Zposition Xrotation Yrotation Zrotation
	JOINT Joint2
	{
		OFFSET -0.000000 0.000000 1.456275
		CHANNELS 6 Xposition Yposition Zposition Xrotation Yrotation Zrotation
		JOINT Joint3
		{
			OFFSET -0.000000 0.000002 1.471446
			CHANNELS 6 Xposition Yposition Zposition Xrotation Yrotation Zrotation
			JOINT Joint4
			{
				OFFSET 0.625745 0.000000 0.917755
				CHANNELS 6 Xposition Yposition Zposition Xrotation Yrotation Zrotation
				JOINT Joint5
				{
					OFFSET -0.629534 0.000001 0.940221
					CHANNELS 6 Xposition Yposition Zposition Xrotation Yrotation Zrotation
					JOINT Joint6
					{
						OFFSET -0.000001 0.113772 1.960660
						CHANNELS 6 Xposition Yposition Zposition Xrotation Yrotation Zrotation
						JOINT Joint7
						{
							OFFSET -0.669733 -0.113771 0.388340
							CHANNELS 6 Xposition Yposition Zposition Xrotation Yrotation Zrotation
							End Site
							{
								OFFSET 0.005509 0.005509 0.438980
							}
						}
					}
				}
			}
		}
	}
}
MOTION
Frames: 22
Frame Time: 0.041667
0.000000 0.000000 0.000000 -0.000000 1.019410 69.039183 -0.000000 0.000000 1.456275 -0.000028 -87.542234 -0.000002 -0.000000 0.000002 1.471445 -0.000008 -1.133465 -102.345228 0.625744 0.000000 0.917755 -0.000001 25.436277 0.000001 -0.629534 0.000001 0.940220 -0.000000 1.709736 -132.699825 -0.000001 0.113772 1.960660 -88.303882 173.935453 0.000001 -0.669733 -0.113771 0.388340 0.141557 3.112933 78.633550 
0.000000 0.000000 0.000000 -0.000000 1.019410 68.979918 -0.000000 0.000000 1.456275 0.000030 -87.505699 -0.000035 -0.000000 0.000002 1.471446 -0.000006 -1.133465 -102.257405 0.625745 0.000000 0.917755 -0.000000 25.530337 0.000001 -0.629534 0.000001 0.940221 -0.000000 1.709735 -132.585925 -0.000001 0.113772 1.960661 -88.303882 173.863381 0.000000 -0.669733 -0.113770 0.388340 0.141082 3.113638 78.681880 
0.000000 0.000000 0.000000 -0.000000 1.019410 68.882765 -0.000000 0.000000 1.456275 -0.000002 -87.445805 0.000018 -0.000000 0.000002 1.471446 -0.000007 -1.133465 -102.113439 0.625745 0.000000 0.917755 -0.000000 25.684539 -0.000001 -0.629534 0.000001 0.940220 0.000000 1.709734 -132.399228 -0.000001 0.113772 1.960661 -88.303882 173.745232 0.000001 -0.669733 -0.113771 0.388340 0.140300 3.114818 78.761111 
0.000000 0.000000 0.000000 -0.000000 1.019410 68.749051 -0.000000 0.000000 1.456275 0.000069 -87.363379 -0.000008 -0.000000 0.000002 1.471446 -0.000007 -1.133465 -101.915295 0.625744 0.000000 0.917755 -0.000001 25.896754 -0.000000 -0.629534 0.000001 0.940221 -0.000001 1.709735 -132.142249 -0.000001 0.113772 1.960660 -88.303882 173.582619 0.000000 -0.669733 -0.113771 0.388341 0.139222 3.116415 78.870161 
0.000000 0.000000 0.000000 -0.000000 1.019410 68.580113 -0.000000 0.000000 1.456275 0.000062 -87.259232 -0.000007 -0.000000 0.000002 1.471446 -0.000006 -1.133465 -101.664948 0.625744 0.000000 0.917755 -0.000000 26.164892 -0.000001 -0.629534 0.000001 0.940221 0.000000 1.709735 -131.817583 -0.000001 0.113772 1.960661 -88.303882 173.377180 -0.000000 -0.669733 -0.113771 0.388340 0.137856 3.118445 79.007940 
0.000000 0.000000 0.000000 -0.000000 1.019410 68.377256 -0.000000 0.000000 1.456275 0.000006 -87.134185 0.000010 -0.000000 0.000002 1.471446 -0.000009 -1.133465 -101.364365 0.625744 0.000000 0.917755 -0.000000 26.486835 -0.000000 -0.629534 0.000001 0.940221 -0.000000 1.709736 -131.427757 -0.000001 0.113772 1.960660 -88.303882 173.130488 0.000001 -0.669733 -0.113771 0.388340 0.136209 3.120873 79.173374 
0.000000 0.000000 0.000000 -0.000000 1.019410 68.141840 -0.000000 0.000000 1.456275 -0.000029 -86.989057 -0.000002 -0.000000 0.000002 1.471446 -0.000007 -1.133465 -101.015513 0.625744 0.000000 0.917755 0.000000 26.860475 0.000000 -0.629534 0.000001 0.940221 -0.000000 1.709736 -130.975325 -0.000001 0.113772 1.960661 -88.303882 172.844193 0.000001 -0.669733 -0.113771 0.388340 0.134288 3.123687 79.365371 
0.000000 0.000000 0.000000 -0.000000 1.019410 67.875176 -0.000000 0.000000 1.456275 -0.000042 -86.824661 -0.000015 -0.000000 0.000002 1.471446 -0.000008 -1.133465 -100.620352 0.625745 0.000000 0.917755 -0.000000 27.283713 0.000000 -0.629534 0.000001 0.940220 0.000000 1.709735 -130.462856 -0.000001 0.113772 1.960661 -88.303882 172.519910 0.000001 -0.669733 -0.113771 0.388340 0.132101 3.126869 79.582858 
0.000000 0.000000 0.000000 -0.000000 1.019410 67.578595 -0.000000 -0.000000 1.456275 0.000006 -86.641824 0.000020 -0.000001 0.000002 1.471446 -0.000007 -1.133465 -100.180871 0.625745 0.000000 0.917755 -0.000001 27.754426 0.000001 -0.629534 0.000001 0.940220 -0.000000 1.709735 -129.892890 -0.000001 0.113772 1.960660 -88.303882 172.159235 0.000001 -0.669733 -0.113771 0.388339 0.129655 3.130394 79.824742 
0.000000 0.000000 0.000000 -0.000000 1.019410 67.253417 -0.000000 0.000000 1.456275 0.000012 -86.441365 0.000005 -0.000000 0.000002 1.471446 -0.000006 -1.133466 -99.699021 0.625744 0.000000 0.917755 -0.000001 28.270520 -0.000001 -0.629534 0.000001 0.940221 -0.000000 1.709736 -129.267996 -0.000001 0.113772 1.960661 -88.303882 171.763794 0.000001 -0.669733 -0.113771 0.388340 0.126956 3.134251 80.089938 
0.000000 0.000000 0.000000 -0.000000 1.019410 66.900986 -0.000000 0.000000 1.456275 0.000003 -86.224103 -0.000008 -0.000000 0.000002 1.471446 -0.000006 -1.133465 -99.176771 0.625745 0.000000 0.917755 -0.000000 28.829873 -0.000000 -0.629533 0.000001 0.940221 0.000000 1.709737 -128.590687 -0.000001 0.113772 1.960661 -88.303882 171.335213 0.000001 -0.669733 -0.113771 0.388340 0.124010 3.138409 80.377366 
0.000000 0.000000 0.000000 -0.000000 1.019410 66.522354 -0.000000 0.000000 1.456275 -0.000033 -85.990695 0.000023 -0.000000 0.000002 1.471446 -0.000007 -1.133466 -98.615699 0.625745 0.000000 0.917755 -0.000001 29.430821 0.000001 -0.629534 0.000001 0.940221 -0.000000 1.709735 -127.863040 -0.000001 0.113772 1.960660 -88.303882 170.874763 0.000001 -0.669733 -0.113771 0.388340 0.120822 3.142874 80.686179 
0.000000 0.000000 0.000000 -0.000000 1.019410 66.117502 -0.000000 0.000000 1.456275 0.000031 -85.741106 -0.000028 -0.000000 0.000002 1.471446 -0.000010 -1.133466 -98.015776 0.625745 0.000000 0.917755 -0.000000 30.073378 0.000000 -0.629534 0.000001 0.940220 -0.000000 1.709735 -127.085000 -0.000001 0.113772 1.960661 -88.303882 170.382416 0.000001 -0.669733 -0.113771 0.388340 0.117386 3.147620 81.016371 
0.000000 0.000000 0.000000 -0.000000 1.019410 65.686127 -0.000000 0.000000 1.456275 0.000017 -85.475187 0.000002 -0.000000 0.000002 1.471445 -0.000008 -1.133465 -97.376573 0.625745 0.000000 0.917755 -0.000000 30.758005 0.000001 -0.629534 0.000001 0.940221 -0.000000 1.709736 -126.256006 -0.000001 0.113772 1.960661 -88.303882 169.857843 0.000001 -0.669733 -0.113770 0.388340 0.113696 3.152653 81.368167 
0.000000 0.000000 0.000000 -0.000000 1.019410 65.227979 -0.000000 0.000000 1.456275 -0.000007 -85.192745 -0.000006 -0.000001 0.000002 1.471446 -0.000005 -1.133465 -96.697652 0.625745 0.000000 0.917755 -0.000000 31.485157 0.000001 -0.629534 0.000001 0.940221 -0.000000 1.709735 -125.375526 -0.000001 0.113772 1.960660 -88.303882 169.300691 0.000001 -0.669733 -0.113771 0.388339 0.109743 3.157986 81.741839 
0.000000 0.000000 0.000000 -0.000000 1.019410 64.742742 -0.000000 0.000000 1.456275 0.000024 -84.893610 -0.000010 -0.000000 0.000002 1.471446 -0.000004 -1.133465 -95.978611 0.625745 0.000000 0.917755 -0.000000 32.255302 0.000000 -0.629534 0.000001 0.940221 -0.000000 1.709735 -124.443014 -0.000001 0.113772 1.960660 -88.303882 168.710590 0.000002 -0.669733 -0.113772 0.388340 0.105518 3.163595 82.137601 
0.000000 0.000000 0.000000 -0.000000 1.019410 64.231058 -0.000000 0.000000 1.456275 -0.000027 -84.578171 0.000021 -0.000000 0.000002 1.471446 -0.000006 -1.133466 -95.220384 0.625744 0.000000 0.917755 -0.000000 33.067411 0.000001 -0.629534 0.000001 0.940221 -0.000000 1.709736 -123.459685 -0.000001 0.113772 1.960660 -88.303882 168.088346 0.000002 -0.669733 -0.113771 0.388340 0.101020 3.169479 82.554919 
0.000000 0.000000 0.000000 -0.000000 1.019410 63.697272 -0.000000 0.000000 1.456275 -0.000026 -84.249113 -0.000001 -0.000000 0.000002 1.471446 -0.000004 -1.133465 -94.429408 0.625745 0.000000 0.917755 -0.000000 33.914601 0.000000 -0.629534 0.000001 0.940221 -0.000000 1.709735 -122.433859 -0.000001 0.113772 1.960661 -88.303882 167.439219 0.000001 -0.669733 -0.113771 0.388340 0.096283 3.175584 82.990282 
0.000000 0.000000 0.000000 -0.000000 1.019410 63.146663 -0.000000 0.000000 1.456275 0.000007 -83.909673 -0.000014 -0.000000 0.000002 1.471446 -0.000006 -1.133465 -93.613480 0.625745 0.000000 0.917755 -0.000000 34.788503 0.000000 -0.629534 0.000001 0.940221 0.000000 1.709735 -121.375685 -0.000001 0.113772 1.960661 -88.303882 166.769614 0.000001 -0.669733 -0.113771 0.388340 0.091348 3.181835 83.439367 
0.000000 0.000000 0.000000 -0.000000 1.019410 62.584497 -0.000000 0.000000 1.456275 -0.000007 -83.563116 -0.000015 -0.000001 0.000002 1.471445 -0.000007 -1.133465 -92.780443 0.625745 0.000000 0.917755 -0.000001 35.680724 -0.000000 -0.629534 0.000001 0.940220 -0.000001 1.709735 -120.295341 -0.000001 0.113772 1.960660 -88.303882 166.085967 0.000001 -0.669733 -0.113771 0.388340 0.086259 3.188188 83.897877 
0.000000 0.000000 0.000000 -0.000000 1.019410 61.999191 -0.000000 -0.000000 1.456275 -0.000006 -83.202291 -0.000006 -0.000000 0.000002 1.471446 -0.000007 -1.133465 -91.913111 0.625745 0.000000 0.917755 0.000000 36.609691 0.000000 -0.629534 0.000001 0.940221 0.000000 1.709735 -119.170491 -0.000001 0.113772 1.960660 -88.303882 165.374179 0.000000 -0.669733 -0.113771 0.388340 0.080906 3.194756 84.375273 
0.000000 0.000000 0.000000 -0.000000 1.019410 61.311733 -0.000000 0.000000 1.456275 -0.000006 -82.778491 -0.000006 -0.000001 0.000002 1.471446 -0.000007 -1.133466 -90.894409 0.625745 0.000000 0.917755 -0.000001 37.700790 0.000000 -0.629534 0.000001 0.940221 -0.000000 1.709735 -117.849354 -0.000001 0.113772 1.960660 -88.303882 164.538151 0.000002 -0.669733 -0.113771 0.388339 0.074550 3.202412 84.935984 
